HIERARCHY
ROOT hip
{
	OFFSET 0.000000 0.000000 0.000000 
	CHANNELS 6 Xposition Yposition Zposition Xrotation Zrotation Yrotation
	JOINT abdomen
	{
		OFFSET 0.000000 3.402643 0.000000 
		CHANNELS 3 Xrotation Zrotation Yrotation
		JOINT chest
		{
			OFFSET 0.000000 8.438565 -0.680529 
			CHANNELS 3 Xrotation Zrotation Yrotation
			JOINT neck
			{
				OFFSET 0.000000 10.207942 -0.272212 
				CHANNELS 3 Xrotation Zrotation Yrotation
				JOINT head
				{
					OFFSET 0.000000 3.130431 0.000000 
					CHANNELS 3 Xrotation Zrotation Yrotation
					End Site
					{
						OFFSET 0.000000 3.130435 0.000000 
					}
				}
			}
			JOINT lCollar
			{
				OFFSET 3.470700 6.669187 -0.816635 
				CHANNELS 3 Yrotation Zrotation Xrotation
				JOINT lShldr
				{
					OFFSET 3.198488 0.000000 0.000000 
					CHANNELS 3 Zrotation Yrotation Xrotation
					JOINT lForeArm
					{
						OFFSET 10.139888 0.000000 0.000000 
						CHANNELS 3 Yrotation Zrotation Xrotation
						JOINT lHand
						{
							OFFSET 8.370511 0.000000 0.000000 
							CHANNELS 3 Zrotation Yrotation Xrotation
							End Site
							{
								OFFSET 4.083176 0.000000 0.000000 
							}
						}
					}
				}
			}
			JOINT rCollar
			{
				OFFSET -3.470700 6.669187 -0.816635 
				CHANNELS 3 Yrotation Zrotation Xrotation
				JOINT rShldr
				{
					OFFSET -3.198488 0.000000 0.000000 
					CHANNELS 3 Zrotation Yrotation Xrotation
					JOINT rForeArm
					{
						OFFSET -10.139888 0.000000 0.000000 
						CHANNELS 3 Yrotation Zrotation Xrotation
						JOINT rHand
						{
							OFFSET -8.370511 0.000000 0.000000 
							CHANNELS 3 Zrotation Yrotation Xrotation
							End Site
							{
								OFFSET -4.083176 0.000000 0.000000 
							}
						}
					}
				}
			}
		}
	}
	JOINT lThigh
	{
		OFFSET 5.308129 -1.633274 1.361059 
		CHANNELS 3 Xrotation Zrotation Yrotation
		JOINT lShin
		{
			OFFSET -2.041588 -20.007561 0.000000 
			CHANNELS 3 Xrotation Zrotation Yrotation
			JOINT lFoot
			{
				OFFSET 0.000000 -19.190928 -1.224953 
				CHANNELS 3 Xrotation Yrotation Zrotation
				End Site
				{
					OFFSET 0.000000 -2.449906 4.627600 
				}
			}
		}
	}
	JOINT rThigh
	{
		OFFSET -5.308129 -1.633274 1.361059 
		CHANNELS 3 Xrotation Zrotation Yrotation
		JOINT rShin
		{
			OFFSET 2.041588 -20.007561 0.000000 
			CHANNELS 3 Xrotation Zrotation Yrotation
			JOINT rFoot
			{
				OFFSET 0.000000 -19.190928 -1.224953 
				CHANNELS 3 Xrotation Yrotation Zrotation
				End Site
				{
					OFFSET 0.000000 -2.449906 4.627600 
				}
			}
		}
	}
}
MOTION
Frames: 6
Frame Time: 0.016667
17.089890 48.342979 -59.375393 -14.800774 -28.954607 32.816933 26.756548 6.036289 -3.073566 -10.621686 18.253632 -3.257888 11.396779 26.822094 12.213809 14.831213 10.177135 11.760362 -4.931098 3.194199 -0.010259 -60.255039 -24.119328 -37.095844 -75.214249 0.854958 9.427713 24.228973 21.134863 9.210295 15.830432 -1.078656 0.018971 32.425079 -3.997996 -72.114937 47.116055 1.527903 -18.401308 -8.678837 2.100137 -0.349856 -38.905285 32.595745 22.274529 49.372322 -0.177638 -3.481228 -26.598658 17.064707 -3.484369 -116.065880 -38.067417 41.223419 27.946911 1.187841 2.374460 8.392242 -7.768952 13.157955 
17.162855 48.049931 -58.528152 -15.245396 -29.507442 35.291092 25.949249 5.905656 -1.687852 -10.507922 19.836252 -1.640282 10.292231 25.235348 9.725231 14.447812 12.709306 9.784148 -5.497467 1.710856 -0.019724 -59.526279 -23.239302 -35.689793 -76.679596 1.000028 11.204342 23.642302 21.672054 9.173725 13.592921 -2.504591 -0.018966 29.939585 -7.039148 -74.164734 50.277370 1.634066 -20.259298 -7.549414 0.578293 -0.096335 -39.735958 31.591122 21.492651 47.480534 -0.284379 -3.398946 -30.595484 18.113287 -1.488330 -122.664391 -40.234478 40.009926 25.207775 1.315206 2.213542 9.089635 -9.360354 13.450780 
17.094477 47.749832 -57.388210 -19.576162 -29.776043 38.835152 28.131849 6.718673 -0.274987 -11.710948 21.121334 -0.763527 10.115132 23.638817 8.587411 13.083591 14.015565 8.638504 -5.048678 0.441172 -0.019530 -59.970360 -20.513233 -35.338978 -76.161728 0.897565 10.026091 24.704304 20.355612 9.072848 12.597656 -3.574219 0.000609 27.651979 -7.860798 -75.049332 52.788223 1.697586 -20.876663 -6.674916 2.211485 -0.258549 -41.243969 33.497887 14.926623 52.297363 0.005613 -3.592496 -30.726273 19.739500 -0.483678 -125.129883 -39.970619 35.938473 33.517422 0.937414 2.668305 11.275023 -2.300346 12.422401 
17.026531 47.450073 -56.248608 -23.900402 -29.810463 42.388542 30.328360 7.478921 1.172560 -12.907218 22.421852 0.087118 9.965843 22.036556 7.474339 11.671116 15.276410 7.454491 -4.599751 -0.839061 -0.009733 -60.394268 -17.797705 -35.031929 -75.638741 0.785275 8.850716 25.740807 19.043325 8.940706 11.600785 -4.650401 -0.009535 25.377106 -8.712202 -75.900208 55.302593 1.745942 -21.491087 -5.795076 3.856218 -0.400584 -43.044907 35.261616 8.153271 57.103172 0.289730 -3.767440 -30.885757 21.392662 0.520204 -127.615936 -39.853436 31.884508 41.833534 0.510935 3.101996 13.601728 4.716868 11.120803 
17.124962 47.278820 -55.224079 -27.622805 -29.588902 46.350227 30.572931 8.892982 1.621556 -12.566164 21.699171 -0.123326 10.112264 21.142416 7.050695 10.630481 16.205851 6.917919 -4.580256 -1.044142 -0.009733 -61.760925 -16.092279 -38.094234 -73.630463 0.656329 6.930977 23.692474 20.421652 8.688640 11.796097 -4.650434 -0.009528 23.988708 -6.627144 -75.967865 57.817013 1.838186 -22.264156 -4.683961 4.612721 -0.386786 -44.538849 35.584198 1.566730 60.368340 0.522338 -3.844694 -30.147072 22.721962 0.912215 -128.754578 -39.520996 30.576565 52.736603 -0.097390 3.559719 17.586580 13.998699 7.665792 
17.223911 47.107662 -54.200317 -31.307531 -29.152582 50.269981 30.829916 10.296126 2.074463 -12.225382 20.966492 -0.321128 10.274060 20.255575 6.635714 9.584249 17.126850 6.358862 -4.560760 -1.249224 -0.009732 -63.212601 -14.460062 -41.162006 -71.625046 0.450475 5.015902 21.617308 21.789846 8.379121 12.000401 -4.642733 -0.019042 22.603424 -4.555431 -76.073959 60.332447 1.888790 -23.034834 -3.582082 5.378946 -0.354973 -46.081997 35.760502 -5.053096 63.623131 0.746518 -3.923127 -29.447384 24.092152 1.309478 -129.852310 -39.189335 29.247194 63.621273 -0.838796 3.897294 22.349092 22.962652 3.389534 
